<?xml version="1.0" encoding="utf-8"?>
<!-- Generator: Adobe Illustrator 23.0.3, SVG Export Plug-In . SVG Version: 6.00 Build 0)  -->
<svg version="1.1" id="圖層_1" xmlns="http://www.w3.org/2000/svg" xmlns:xlink="http://www.w3.org/1999/xlink" x="0px" y="0px"
	 viewBox="0 0 1366 768" style="enable-background:new 0 0 1366 768;" xml:space="preserve">
<style type="text/css">
	.st0{fill:none;stroke:#0000FF;stroke-width:3;stroke-miterlimit:10;}
</style>
<path class="st0" d="M559.8,195.3l3.3-36c0.8-8.7,8.6-15.8,17.4-15.8h206.6c8.7,0,16.5,7.1,17.4,15.8l3.3,36"/>
<path class="st0" d="M529.1,247.3v-36.1c0-8.7,7.2-15.9,15.9-15.9h277.7c8.7,0,15.9,7.2,15.9,15.9v36.1"/>
<polyline class="st0" points="813.6,539.7 554.1,539.7 539.1,329.5 "/>
<polyline class="st0" points="539.1,329.5 828.6,329.5 813.6,539.7 "/>
<path class="st0" d="M636.1,387.6c12-12.5,28.9-20.4,47.7-20.4c36.4,0,66,29.5,66,66s-29.5,66-66,66s-66-29.5-66-66
	C617.8,415.6,624.8,399.5,636.1,387.6"/>
<line class="st0" x1="529.1" y1="247.3" x2="838.6" y2="247.3"/>
<line class="st0" x1="542.9" y1="247.3" x2="548.8" y2="329.5"/>
<line class="st0" x1="818.9" y1="329.5" x2="824.8" y2="247.3"/>
<path class="st0" d="M563.9,539.7l5,69c0.6,8.3,7.5,14.8,15.9,14.8H783c8.3,0,15.3-6.4,15.9-14.8l5-69"/>
</svg>
