<!--?xml version="1.0" encoding="utf-8"?-->
<!-- Generator: Adobe Illustrator 23.0.3, SVG Export Plug-In . SVG Version: 6.00 Build 0)  -->
<svg version="1.0" id="圖層_1" xmlns="http://www.w3.org/2000/svg" xmlns:xlink="http://www.w3.org/1999/xlink" x="0px" y="0px" viewBox="0 0 1366 768" enable-background="new 0 0 1366 768" xml:space="preserve" style="">
<path fill="none" stroke="#0000FF" stroke-miterlimit="10" d="M559.8,195.3l3.3-36c0.8-8.7,8.6-15.8,17.4-15.8h206.6
	c8.7,0,16.5,7.1,17.4,15.8l3.3,36" class="bagwhBNl_0"></path>
<path fill="none" stroke="#0000FF" stroke-miterlimit="10" d="M529.1,247.3v-36.1c0-8.7,7.2-15.9,15.9-15.9h277.7
	c8.7,0,15.9,7.2,15.9,15.9v36.1" class="bagwhBNl_1"></path>
<path fill="none" stroke="#0000FF" stroke-miterlimit="10" d="M813.6,539.7L554.1,539.7L539.1,329.5" class="bagwhBNl_2"></path>
<path fill="none" stroke="#0000FF" stroke-miterlimit="10" d="M539.1,329.5L828.6,329.5L813.6,539.7" class="bagwhBNl_3"></path>
<path fill="none" stroke="#0000FF" stroke-miterlimit="10" d="M636.1,387.6c12-12.5,28.9-20.4,47.7-20.4c36.4,0,66,29.5,66,66
	s-29.5,66-66,66s-66-29.5-66-66C617.8,415.6,624.8,399.5,636.1,387.6" class="bagwhBNl_4"></path>
<path fill="none" stroke="#0000FF" stroke-miterlimit="10" d="M529.1,247.3L838.6,247.3" class="bagwhBNl_5"></path>
<path fill="none" stroke="#0000FF" stroke-miterlimit="10" d="M542.9,247.3L548.8,329.5" class="bagwhBNl_6"></path>
<path fill="none" stroke="#0000FF" stroke-miterlimit="10" d="M818.9,329.5L824.8,247.3" class="bagwhBNl_7"></path>
<path fill="none" stroke="#0000FF" stroke-miterlimit="10" d="M563.9,539.7l5,69c0.6,8.3,7.5,14.8,15.9,14.8h198.2
	c8.3,0,15.3-6.4,15.9-14.8l5-69" class="bagwhBNl_8"></path>
<style data-made-with="vivus-instant">.bagwhBNl_0{stroke-dasharray:331 333;stroke-dashoffset:332;animation:bagwhBNl_draw 2000ms linear 0ms forwards;}.bagwhBNl_1{stroke-dasharray:400 402;stroke-dashoffset:401;animation:bagwhBNl_draw 2000ms linear 125ms forwards;}.bagwhBNl_2{stroke-dasharray:471 473;stroke-dashoffset:472;animation:bagwhBNl_draw 2000ms linear 250ms forwards;}.bagwhBNl_3{stroke-dasharray:501 503;stroke-dashoffset:502;animation:bagwhBNl_draw 2000ms linear 375ms forwards;}.bagwhBNl_4{stroke-dasharray:415 417;stroke-dashoffset:416;animation:bagwhBNl_draw 2000ms linear 500ms forwards;}.bagwhBNl_5{stroke-dasharray:310 312;stroke-dashoffset:311;animation:bagwhBNl_draw 2000ms linear 625ms forwards;}.bagwhBNl_6{stroke-dasharray:83 85;stroke-dashoffset:84;animation:bagwhBNl_draw 2000ms linear 750ms forwards;}.bagwhBNl_7{stroke-dasharray:83 85;stroke-dashoffset:84;animation:bagwhBNl_draw 2000ms linear 875ms forwards;}.bagwhBNl_8{stroke-dasharray:385 387;stroke-dashoffset:386;animation:bagwhBNl_draw 2000ms linear 1000ms forwards;}@keyframes bagwhBNl_draw{100%{stroke-dashoffset:0;}}@keyframes bagwhBNl_fade{0%{stroke-opacity:1;}94.44444444444444%{stroke-opacity:1;}100%{stroke-opacity:0;}}</style></svg>
