<?xml version="1.0" encoding="utf-8"?>
<!-- Generator: Adobe Illustrator 23.0.3, SVG Export Plug-In . SVG Version: 6.00 Build 0)  -->
<svg version="1.1" id="圖層_1" xmlns="http://www.w3.org/2000/svg" xmlns:xlink="http://www.w3.org/1999/xlink" x="0px" y="0px"
	 viewBox="0 0 1366 768" style="enable-background:new 0 0 1366 768;" xml:space="preserve">
<style type="text/css">
	.st0{fill:none;stroke:#0000FF;stroke-width:3;stroke-miterlimit:10;}
</style>
<path class="st0" d="M1069.6,370.6c0,2.8-2.2,5-5,5h-367c-2.8,0-5-2.2-5-5V148.5c0-2.8,2.2-5,5-5h366.9c2.8,0,5,2.2,5,5
	L1069.6,370.6L1069.6,370.6z"/>
<path class="st0" d="M824.9,222.7c0,2.8-2.2,5-5,5h-10.2c-2.8,0-5-2.2-5-5v-16.2c0-2.8,2.2-5,5-5h10.2c2.8,0,5,2.2,5,5V222.7z"/>
<path class="st0" d="M958.2,222.7c0,2.8-2.2,5-5,5H943c-2.8,0-5-2.2-5-5v-16.2c0-2.8,2.2-5,5-5h10.2c2.8,0,5,2.2,5,5V222.7z"/>
<rect x="362.5" y="218.2" class="st0" width="20.2" height="26.2"/>
<path class="st0" d="M824.9,307.4c0,2.8-2.2,5-5,5h-10.2c-2.8,0-5-2.2-5-5v-16.2c0-2.8,2.2-5,5-5h10.2c2.8,0,5,2.2,5,5V307.4z"/>
<path class="st0" d="M958.2,307.4c0,2.8-2.2,5-5,5H943c-2.8,0-5-2.2-5-5v-16.2c0-2.8,2.2-5,5-5h10.2c2.8,0,5,2.2,5,5V307.4z"/>
<path class="st0" d="M434.3,323.8c2.8,0,5-2.2,5-5V148.5c0-2.8-2.2-5-5-5h-132c-2.8,0-5,2.2-5,5v170.4c0,2.8,2.2,5,5,5h41.3
	c2.8,0,5,2.2,5,5v184.3c0,2.8-2.2,5-5,5H339c-2.8,0-5-2.2-5-5V346.5c0-2.8-2.2-5-5-5h-26.7c-2.8,0-5,2.2-5,5v166.7c0,2.8,0,7.2,0,10
	v96.9c0,2.8,2.2,5,5,5H329c2.8,0,7.2,0,10,0h4.6c2.8,0,7.2,0,10,0h48.5c2.8,0,7.2,0,10,0h22.2c2.8,0,5-2.2,5-5v-96.9
	c0-2.8-2.2-5-5-5h-22.2c-2.8,0-5-2.2-5-5v-8.6c0-2.8,2.2-5,5-5h22.2c2.8,0,5-2.2,5-5V346.5c0-2.8-2.2-5-5-5h-22.2c-2.8,0-5-2.2-5-5
	v-7.6c0-2.8,2.2-5,5-5L434.3,323.8L434.3,323.8z"/>
<path class="st0" d="M606,478.6c-2.8,0-5-2.2-5-5v-8.2c0-2.8,2.2-5,5-5h63.2c2.8,0,5-2.2,5-5V398c0-2.8-2.2-5-5-5H459
	c-2.8,0-5,2.2-5,5v58c0,2.8,2.2,5,5,5h6.2c2.8,0,5,2.2,5,5v47.2c0,2.8-2.2,5-5,5H459c-2.8,0-5,2.2-5,5V540c0,2.8,2.2,5,5,5h51.7
	c2.8,0,5,2.2,5,5v8.2c0,2.8-2.2,5-5,5H459c-2.8,0-5,2.2-5,5V620c0,2.8,2.2,5,5,5h210.3c2.8,0,5-2.2,5-5V483.6c0-2.8-2.2-5-5-5H606z"
	/>
<path class="st0" d="M1057.8,396.8c-1.7-2.1-5.4-3.9-8.1-3.9H712.5c-2.8,0-6.4,1.8-8.1,3.9l-8.6,10.8c-1.7,2.1-3.1,6.2-3.1,8.9v128
	c0,2.8,2.2,5,5,5h8.2c2.8,0,5,2.2,5,5v65.6c0,2.8,2.2,5,5,5h151.8c2.8,0,5-2.2,5-5V507.3c0-2.8-2.2-5-5-5h-2.3
	c-2.8,0-3.4-1.5-1.4-3.4l14.2-13.4c2-1.9,5.3-1.9,7.3,0l14.2,13.4c2,1.9,1.4,3.4-1.4,3.4H896c-2.8,0-5,2.2-5,5V620c0,2.8,2.2,5,5,5
	h150.5c2.8,0,5-2.2,5-5v-65.6c0-2.8,2.2-5,5-5h8.2c2.8,0,5-2.2,5-5v-128c0-2.8-1.4-6.8-3.1-8.9L1057.8,396.8z"/>
<path class="st0" d="M674.4,163.5c0-2.8-2.2-5-5-5h-1c-2.8,0-5-2.2-5-5v-5c0-2.8-2.2-5-5-5H470.1c-2.8,0-5,2.2-5,5v5
	c0,2.8-2.2,5-5,5h-1c-2.8,0-5,2.2-5,5v69.3c0,2.8,2.2,5,5,5h5.4c2.8,0,3.7,1.8,2.1,4.1L457,255c-1.6,2.2-2.9,6.3-2.9,9.1v106.6
	c0,2.8,2.2,5,5,5h26.2c2.8,0,6.4-1.8,8.1-3.9l15.6-19.6c1.7-2.2,3.1-1.7,3.1,1.1v17.4c0,2.8,2.2,5,5,5h94.3c2.8,0,5-2.2,5-5v-17.4
	c0-2.8,1.4-3.2,3.1-1.1l15.6,19.6c1.7,2.2,5.4,3.9,8.1,3.9h26.2c2.8,0,5-2.2,5-5V264c0-2.8-1.3-6.8-2.9-9.1l-9.5-13.2
	c-1.6-2.2-0.7-4.1,2.1-4.1h5.4c2.8,0,5-2.2,5-5L674.4,163.5L674.4,163.5z M547.2,316c-2.8,0-3.6-1.8-1.9-3.9l15.9-20.3
	c1.7-2.2,4.5-2.2,6.2,0l15.9,20.3c1.7,2.2,0.8,3.9-1.9,3.9H547.2z"/>
</svg>
