<?xml version="1.0" encoding="utf-8"?>
<!-- Generator: Adobe Illustrator 23.0.3, SVG Export Plug-In . SVG Version: 6.00 Build 0)  -->
<svg version="1.1" id="圖層_1" xmlns="http://www.w3.org/2000/svg" xmlns:xlink="http://www.w3.org/1999/xlink" x="0px" y="0px"
	 viewBox="0 0 1366 768" style="enable-background:new 0 0 1366 768;" xml:space="preserve">
<style type="text/css">
	.st0{fill:none;stroke:#0000FF;stroke-width:3;stroke-miterlimit:10;}
</style>
<path class="st0" d="M818.5,605c0.1,18.5-14.9,33.5-33.4,33.5H586c-18.5,0-33.5-15-33.5-33.5V166.1c0-18.5,15-33.5,33.5-33.5h199
	c18.5,0,33.5,15,33.5,33.5V605"/>
<path class="st0" d="M781.8,145.2c12.3,0,22.3,10,22.3,22.3v436.1c0,12.3-9.9,22.2-22.2,22.2H589.2c-12.3,0-22.3-10-22.3-22.3v-436
	c0-12.3,10-22.3,22.3-22.3H781.8"/>
<path class="st0" d="M575.9,216.7h219.3c1.2,0,2.2,1,2.2,2.2v332.5c0,1.2-1,2.2-2.2,2.2H575.9c-1.2,0-2.2-1-2.2-2.2V218.9
	C573.7,217.7,574.7,216.7,575.9,216.7"/>
<path class="st0" d="M707.4,186.9h-43.7c-2.3,0-4.2-1.9-4.2-4.2v-2.4c0-2.3,1.9-4.2,4.2-4.2h43.7c2.3,0,4.2,1.9,4.2,4.2v2.4
	C711.7,185,709.8,186.9,707.4,186.9z"/>
<circle class="st0" cx="685.6" cy="591.6" r="24.3"/>
<path class="st0" d="M690.9,599.6h-10.6c-1.5,0-2.6-1.2-2.6-2.6v-10.6c0-1.5,1.2-2.6,2.6-2.6h10.6c1.5,0,2.6,1.2,2.6,2.6V597
	C693.5,598.4,692.3,599.6,690.9,599.6z"/>
<path class="st0" d="M774.8,132.6v-2.1c0-0.7-0.6-1.3-1.3-1.3h-41.9c-0.7,0-1.3,0.6-1.3,1.3v2.1"/>
<path class="st0" d="M552.5,223.2h-2.1c-0.7,0-1.3,0.6-1.3,1.3v25.8c0,0.7,0.6,1.3,1.3,1.3h2.1"/>
<path class="st0" d="M552.5,182.3h-2.1c-0.7,0-1.3,0.6-1.3,1.3v19c0,0.7,0.6,1.3,1.3,1.3h2.1"/>
<path class="st0" d="M552.5,278.5h-2.1c-0.7,0-1.3,0.6-1.3,1.3v25.8c0,0.7,0.6,1.3,1.3,1.3h2.1"/>
</svg>
